HIERARCHY
ROOT Hips
{
	OFFSET 0.00000 71.39831 1.34371
	CHANNELS 6 Xposition Yposition Zposition Xrotation Yrotation Zrotation
	JOINT Spine
	{
		OFFSET 0.00000 13.36812 0.47053
		CHANNELS 3 Xrotation Yrotation Zrotation
		JOINT Spine1
		{
			OFFSET 0.00000 13.84042 0.54634
			CHANNELS 3 Xrotation Yrotation Zrotation
			JOINT Spine2
			{
				OFFSET 0.00000 16.28432 -1.42547
				CHANNELS 3 Xrotation Yrotation Zrotation
				JOINT Neck
				{
					OFFSET 0.00000 18.58277 -1.71004
					CHANNELS 3 Xrotation Yrotation Zrotation
					JOINT Head
					{
						OFFSET 0.00000 6.61529 1.39417
						CHANNELS 3 Xrotation Yrotation Zrotation
						JOINT HeadTop_End
						{
							OFFSET 0.00000 21.74878 -0.03420
							CHANNELS 3 Xrotation Yrotation Zrotation
							End site
							{
								OFFSET 0.00000 21.96995 0.00000
							}
						}
						JOINT Hat
						{
							OFFSET -0.00000 27.20895 -10.09106
							CHANNELS 3 Xrotation Yrotation Zrotation
							End site
							{
								OFFSET 0.00000 21.96995 0.00000
							}
						}
						JOINT LeftHairA1
						{
							OFFSET 10.24525 17.42578 1.47291
							CHANNELS 3 Xrotation Yrotation Zrotation
							JOINT LeftHairA2
							{
								OFFSET 1.54917 -12.92062 3.59283
								CHANNELS 3 Xrotation Yrotation Zrotation
								End site
								{
									OFFSET 0.00000 3.61673 13.00654
								}
							}
						}
						JOINT LeftHairC1
						{
							OFFSET 10.24525 17.42578 -1.32092
							CHANNELS 3 Xrotation Yrotation Zrotation
							JOINT LeftHairC2
							{
								OFFSET 3.26798 -10.97659 1.04144
								CHANNELS 3 Xrotation Yrotation Zrotation
								End site
								{
									OFFSET 0.00000 1.08623 11.44859
								}
							}
						}
						JOINT RightHairA1
						{
							OFFSET -10.24520 17.42577 1.47291
							CHANNELS 3 Xrotation Yrotation Zrotation
							JOINT RightHairA2
							{
								OFFSET -1.54920 -12.92104 3.59282
								CHANNELS 3 Xrotation Yrotation Zrotation
								End site
								{
									OFFSET 0.00000 -3.61684 -13.00691
								}
							}
						}
						JOINT RightHairC1
						{
							OFFSET -10.24520 17.42577 -1.32092
							CHANNELS 3 Xrotation Yrotation Zrotation
							JOINT RightHairC2
							{
								OFFSET -3.26801 -10.97701 1.04145
								CHANNELS 3 Xrotation Yrotation Zrotation
								End site
								{
									OFFSET 0.00000 -1.08626 -11.44898
								}
							}
						}
					}
				}
				JOINT LeftShoulder
				{
					OFFSET 5.41676 15.05100 -2.84829
					CHANNELS 3 Xrotation Yrotation Zrotation
					JOINT LeftArm
					{
						OFFSET 9.83098 2.53081 -1.53683
						CHANNELS 3 Xrotation Yrotation Zrotation
						JOINT LeftForeArm
						{
							OFFSET 21.94687 -0.00003 0.00000
							CHANNELS 3 Xrotation Yrotation Zrotation
							JOINT LeftHand
							{
								OFFSET 33.89138 0.00002 -0.00000
								CHANNELS 3 Xrotation Yrotation Zrotation
								JOINT LeftHandThumb1
								{
									OFFSET 6.71687 -2.37172 3.37028
									CHANNELS 3 Xrotation Yrotation Zrotation
									JOINT LeftHandThumb2
									{
										OFFSET 2.49698 -1.43620 1.44691
										CHANNELS 3 Xrotation Yrotation Zrotation
										JOINT LeftHandThumb3
										{
											OFFSET 2.91436 -1.67625 1.68876
											CHANNELS 3 Xrotation Yrotation Zrotation
											JOINT LeftHandThumb4
											{
												OFFSET 3.11297 -1.79051 1.80386
												CHANNELS 3 Xrotation Yrotation Zrotation
												End site
												{
													OFFSET 3.11297 -1.79050 1.80385
												}
											}
										}
									}
								}
								JOINT LeftHandIndex1
								{
									OFFSET 14.19239 -0.26653 3.84665
									CHANNELS 3 Xrotation Yrotation Zrotation
									JOINT LeftHandIndex2
									{
										OFFSET 3.55173 -0.00003 -0.00004
										CHANNELS 3 Xrotation Yrotation Zrotation
										JOINT LeftHandIndex3
										{
											OFFSET 2.89418 0.00000 0.00004
											CHANNELS 3 Xrotation Yrotation Zrotation
											JOINT LeftHandIndex4
											{
												OFFSET 3.67603 0.00000 -0.00000
												CHANNELS 3 Xrotation Yrotation Zrotation
												End site
												{
													OFFSET 3.67603 0.00000 -0.00000
												}
											}
										}
									}
								}
								JOINT LeftHandMiddle1
								{
									OFFSET 13.77808 -0.01205 0.00639
									CHANNELS 3 Xrotation Yrotation Zrotation
									JOINT LeftHandMiddle2
									{
										OFFSET 3.43825 -0.00002 0.00003
										CHANNELS 3 Xrotation Yrotation Zrotation
										JOINT LeftHandMiddle3
										{
											OFFSET 3.69156 0.00003 -0.00004
											CHANNELS 3 Xrotation Yrotation Zrotation
											JOINT LeftHandMiddle4
											{
												OFFSET 4.09372 0.00000 0.00000
												CHANNELS 3 Xrotation Yrotation Zrotation
												End site
												{
													OFFSET 4.09372 0.00000 0.00000
												}
											}
										}
									}
								}
								JOINT LeftHandRing1
								{
									OFFSET 13.96767 -0.28012 -3.06108
									CHANNELS 3 Xrotation Yrotation Zrotation
									JOINT LeftHandRing2
									{
										OFFSET 3.16252 0.00000 0.00000
										CHANNELS 3 Xrotation Yrotation Zrotation
										JOINT LeftHandRing3
										{
											OFFSET 3.32438 0.00000 -0.00008
											CHANNELS 3 Xrotation Yrotation Zrotation
											JOINT LeftHandRing4
											{
												OFFSET 3.62239 0.00000 0.00000
												CHANNELS 3 Xrotation Yrotation Zrotation
												End site
												{
													OFFSET 3.62239 0.00000 0.00000
												}
											}
										}
									}
								}
								JOINT LeftHandPinky1
								{
									OFFSET 13.13299 -0.18053 -5.74049
									CHANNELS 3 Xrotation Yrotation Zrotation
									JOINT LeftHandPinky2
									{
										OFFSET 2.84917 0.00002 -0.00005
										CHANNELS 3 Xrotation Yrotation Zrotation
										JOINT LeftHandPinky3
										{
											OFFSET 2.80502 0.00005 0.00000
											CHANNELS 3 Xrotation Yrotation Zrotation
											JOINT LeftHandPinky4
											{
												OFFSET 2.84901 0.00000 0.00000
												CHANNELS 3 Xrotation Yrotation Zrotation
												End site
												{
													OFFSET 2.84901 0.00000 0.00000
												}
											}
										}
									}
								}
							}
							JOINT Left_Sleeve
							{
								OFFSET 14.49165 0.00015 -0.00000
								CHANNELS 3 Xrotation Yrotation Zrotation
								End site
								{
									OFFSET 24.19150 0.00000 0.00021
								}
							}
						}
					}
				}
				JOINT BindRightJacketString1
				{
					OFFSET -3.21979 11.92483 7.18310
					CHANNELS 3 Xrotation Yrotation Zrotation
					JOINT BindRightJacketString2
					{
						OFFSET -0.36484 -5.90401 3.18678
						CHANNELS 3 Xrotation Yrotation Zrotation
						End site
						{
							OFFSET -0.36483 -5.90411 3.18658
						}
					}
				}
				JOINT BindLeftJacketString1
				{
					OFFSET 3.21978 11.92513 7.18310
					CHANNELS 3 Xrotation Yrotation Zrotation
					JOINT BindLeftJacketString2
					{
						OFFSET 0.36485 -5.90445 3.18676
						CHANNELS 3 Xrotation Yrotation Zrotation
						End site
						{
							OFFSET 0.36485 -5.90446 3.18677
						}
					}
				}
				JOINT HairE1
				{
					OFFSET 6.23019 17.56820 -11.60982
					CHANNELS 3 Xrotation Yrotation Zrotation
					JOINT HairE2
					{
						OFFSET 0.28920 -7.17191 -1.28449
						CHANNELS 3 Xrotation Yrotation Zrotation
						End site
						{
							OFFSET 0.28920 -7.17192 -1.28449
						}
					}
				}
				JOINT HairF1
				{
					OFFSET -0.54981 17.56818 -11.60982
					CHANNELS 3 Xrotation Yrotation Zrotation
					JOINT HairF2
					{
						OFFSET 0.00000 -14.08711 -2.12751
						CHANNELS 3 Xrotation Yrotation Zrotation
						End site
						{
							OFFSET 0.00000 -14.08711 -2.12751
						}
					}
				}
				JOINT HairG1
				{
					OFFSET -7.77270 17.56818 -11.60982
					CHANNELS 3 Xrotation Yrotation Zrotation
					JOINT HairG2
					{
						OFFSET -0.29355 -6.08137 -0.91014
						CHANNELS 3 Xrotation Yrotation Zrotation
						End site
						{
							OFFSET -0.29355 -6.08136 -0.91014
						}
					}
				}
				JOINT RightShoulder
				{
					OFFSET -5.41676 15.05083 -2.84829
					CHANNELS 3 Xrotation Yrotation Zrotation
					JOINT RightArm
					{
						OFFSET -9.83095 2.53101 -1.53683
						CHANNELS 3 Xrotation Yrotation Zrotation
						JOINT RightForeArm
						{
							OFFSET -21.94690 0.00000 0.00000
							CHANNELS 3 Xrotation Yrotation Zrotation
							JOINT RightHand
							{
								OFFSET -33.89140 0.00000 0.00000
								CHANNELS 3 Xrotation Yrotation Zrotation
								JOINT RightHandThumb1
								{
									OFFSET -6.71690 -2.37201 3.37029
									CHANNELS 3 Xrotation Yrotation Zrotation
									JOINT RightHandThumb2
									{
										OFFSET -2.49689 -1.43600 1.44691
										CHANNELS 3 Xrotation Yrotation Zrotation
										JOINT RightHandThumb3
										{
											OFFSET -2.91441 -1.67598 1.68876
											CHANNELS 3 Xrotation Yrotation Zrotation
											JOINT RightHandThumb4
											{
												OFFSET -3.11300 -1.79100 1.80385
												CHANNELS 3 Xrotation Yrotation Zrotation
												End site
												{
													OFFSET -3.11301 -1.79102 1.80385
												}
											}
										}
									}
								}
								JOINT RightHandIndex1
								{
									OFFSET -14.19240 -0.26701 3.84666
									CHANNELS 3 Xrotation Yrotation Zrotation
									JOINT RightHandIndex2
									{
										OFFSET -3.55171 0.00000 -0.00004
										CHANNELS 3 Xrotation Yrotation Zrotation
										JOINT RightHandIndex3
										{
											OFFSET -2.89419 0.00000 0.00004
											CHANNELS 3 Xrotation Yrotation Zrotation
											JOINT RightHandIndex4
											{
												OFFSET -3.67601 0.00000 0.00000
												CHANNELS 3 Xrotation Yrotation Zrotation
												End site
												{
													OFFSET -3.67600 0.00000 0.00000
												}
											}
										}
									}
								}
								JOINT RightHandMiddle1
								{
									OFFSET -13.77810 -0.01201 0.00639
									CHANNELS 3 Xrotation Yrotation Zrotation
									JOINT RightHandMiddle2
									{
										OFFSET -3.43820 0.00000 0.00003
										CHANNELS 3 Xrotation Yrotation Zrotation
										JOINT RightHandMiddle3
										{
											OFFSET -3.69159 0.00000 -0.00004
											CHANNELS 3 Xrotation Yrotation Zrotation
											JOINT RightHandMiddle4
											{
												OFFSET -4.09371 0.00000 0.00000
												CHANNELS 3 Xrotation Yrotation Zrotation
												End site
												{
													OFFSET -4.09370 0.00000 0.00000
												}
											}
										}
									}
								}
								JOINT RightHandRing1
								{
									OFFSET -13.96771 -0.28001 -3.06108
									CHANNELS 3 Xrotation Yrotation Zrotation
									JOINT RightHandRing2
									{
										OFFSET -3.16249 0.00000 0.00000
										CHANNELS 3 Xrotation Yrotation Zrotation
										JOINT RightHandRing3
										{
											OFFSET -3.32441 0.00000 -0.00008
											CHANNELS 3 Xrotation Yrotation Zrotation
											JOINT RightHandRing4
											{
												OFFSET -3.62230 0.00000 0.00000
												CHANNELS 3 Xrotation Yrotation Zrotation
												End site
												{
													OFFSET -3.62230 0.00000 0.00000
												}
											}
										}
									}
								}
								JOINT RightHandPinky1
								{
									OFFSET -13.13300 -0.18100 -5.74048
									CHANNELS 3 Xrotation Yrotation Zrotation
									JOINT RightHandPinky2
									{
										OFFSET -2.84911 0.00000 -0.00005
										CHANNELS 3 Xrotation Yrotation Zrotation
										JOINT RightHandPinky3
										{
											OFFSET -2.80509 0.00000 0.00001
											CHANNELS 3 Xrotation Yrotation Zrotation
											JOINT RightHandPinky4
											{
												OFFSET -2.84900 0.00000 -0.00000
												CHANNELS 3 Xrotation Yrotation Zrotation
												End site
												{
													OFFSET -2.84900 0.00000 0.00000
												}
											}
										}
									}
								}
							}
							JOINT Right_Sleeve
							{
								OFFSET -14.49169 0.00000 0.00000
								CHANNELS 3 Xrotation Yrotation Zrotation
								End site
								{
									OFFSET -24.19154 0.00000 0.00000
								}
							}
						}
					}
				}
			}
		}
	}
	JOINT Pouch
	{
		OFFSET 0.00000 4.39455 10.84731
		CHANNELS 3 Xrotation Yrotation Zrotation
		End site
		{
			OFFSET 0.00000 10.77969 0.00000
		}
	}
	JOINT Bag
	{
		OFFSET -13.22902 4.81304 -0.59326
		CHANNELS 3 Xrotation Yrotation Zrotation
		End site
		{
			OFFSET 0.00000 10.77969 0.00000
		}
	}
	JOINT RightUpLeg
	{
		OFFSET -6.79712 -2.50851 -1.31865
		CHANNELS 3 Xrotation Yrotation Zrotation
		JOINT RightLeg
		{
			OFFSET -0.00000 -29.11340 -0.16163
			CHANNELS 3 Xrotation Yrotation Zrotation
			JOINT RightFoot
			{
				OFFSET 0.00000 -29.63301 -1.87444
				CHANNELS 3 Xrotation Yrotation Zrotation
				JOINT RightToeBase
				{
					OFFSET -3.26579 -10.13811 16.09482
					CHANNELS 3 Xrotation Yrotation Zrotation
					JOINT RightToe_End
					{
						OFFSET -1.28400 0.00175 8.24664
						CHANNELS 3 Xrotation Yrotation Zrotation
						End site
						{
							OFFSET -1.28400 0.00175 8.24664
						}
					}
				}
			}
		}
	}
	JOINT LeftUpLeg
	{
		OFFSET 6.79712 -2.50853 -1.31865
		CHANNELS 3 Xrotation Yrotation Zrotation
		JOINT LeftLeg
		{
			OFFSET 0.00000 -29.11343 -0.16163
			CHANNELS 3 Xrotation Yrotation Zrotation
			JOINT LeftFoot
			{
				OFFSET 0.00000 -29.63297 -1.87444
				CHANNELS 3 Xrotation Yrotation Zrotation
				JOINT LeftToeBase
				{
					OFFSET 3.26580 -10.13796 16.09492
					CHANNELS 3 Xrotation Yrotation Zrotation
					JOINT LeftToe_End
					{
						OFFSET 1.28398 0.00177 8.24681
						CHANNELS 3 Xrotation Yrotation Zrotation
						End site
						{
							OFFSET 1.28398 0.00178 8.24681
						}
					}
				}
			}
		}
	}
}
MOTION
Frames: 4
Frame Time: 0.033333
0.059259 82.56438 -0.176614 11.723128 3.0517402 -1.309496 9.926541 1.444471 1.221635 7.6453323 0.753238 0.067555 7.6369495 0.840691 0.048839998 -11.425852 -1.903133 7.3270288 -27.420403 2.052731 -6.271688 -0.0 0.0 -0.0 0.0 0.0 0.0 0.0 0.0 0.0 0.0 0.0 0.0 0.0 0.0 0.0 0.0 0.0 0.0 0.0 0.0 0.0 0.0 0.0 0.0 0.0 0.0 0.0 0.0 0.0 0.0 3.561427 -24.345015 2.4506195 -63.079777 -19.97759 -65.91468 178.14018 -68.66464 181.97858 0.7786939 -4.2365746 14.397182 -15.246067 10.161722 26.456184 3.9380686 7.949318 0.7475919 -0.57959694 1.574941 2.538725 1.9999998e-06 2.9999999e-06 1.9999998e-06 -9.999999e-07 0.00057 9.8e-05 -9.999999e-07 -0.00068 -7.0999995e-05 6.9999996e-06 7.999999e-06 -4.9e-05 9.999999e-07 2.9999999e-06 9.999999e-07 -3.9999995e-06 -0.001958 0.016073 8.999999e-06 0.0019460001 -0.016044 -8.999999e-06 7.999999e-06 -4.6999998e-05 9.999999e-07 -2.9999999e-06 -9.999999e-07 -9.999999e-07 0.00047299996 9.8e-05 -0.0 -0.0008869999 -0.00037099997 5.9999998e-06 1.3999999e-05 -4.7999998e-05 1.9999998e-06 5e-06 9.999999e-07 -0.018607 4.0704226 0.51138395 -0.017976003 -4.0964427 -0.51183593 9.999999e-07 0.026304998 0.00034899998 -0.0 -9.999999e-07 -1.9999998e-06 0.0 0.0 0.0 0.0 0.0 0.0 0.0 0.0 0.0 0.0 0.0 0.0 0.0 0.0 0.0 0.0 0.0 0.0 0.0 0.0 0.0 0.0 0.0 0.0 0.0 0.0 0.0 0.0 0.0 0.0 0.0 0.0 0.0 0.7912176 11.104475 13.16329 -60.048378 40.4522 50.477966 -182.58983 73.4535 177.3161 2.773655 -4.0375195 -38.88768 -6.9478354 -5.0498343 -29.74294 4.63755 -8.633951 -0.226338 -1.273779 0.137187 -2.094857 -0.0 3.9999995e-06 -0.0 9.999999e-07 -0.000498 -0.000103 1.9999998e-06 0.000475 8.799999e-05 -2.9999999e-06 3.9999995e-06 1.6999998e-05 -0.0 0.0 9.999999e-07 -0.0 9.999999e-07 -0.000103 2.9999999e-06 -1e-05 8.799999e-05 -2.9999999e-06 2.9999999e-06 1.6999998e-05 -0.0 9.999999e-07 -0.0 9.999999e-07 -0.00059999997 -0.000103 1.9999998e-06 0.00088999997 8.799999e-05 -2.9999999e-06 6.9999996e-06 1.6999998e-05 -0.0 3.9999995e-06 -9.999999e-07 9.999999e-07 -0.00039999996 -0.000103 2.9999999e-06 0.0011909999 8.8999994e-05 -2.9999999e-06 -0.001196 1.6999998e-05 -0.0 -1.9999998e-06 -0.0 0.0 0.0 0.0 0.0 0.0 0.0 0.0 0.0 0.0 -54.222374 -14.558285 -6.447004 75.58267 -8.127576 -4.584906 -33.983315 -10.049337 4.1473365 -3.9999995e-06 9.999999e-07 -2.9999999e-06 -0.0 0.0 -0.0 -56.05104 1.6237999 4.676087 76.5535 7.705331 -0.607359 -31.314135 5.395916 -5.148492 -1.0999999e-05 2.9999999e-06 -9.999999e-07 -0.0 -9.999999e-07 -0.0
0.065414 82.56915 -0.167688 11.766413 3.041958 -1.3257 9.909365 1.46392 1.206906 7.633176 0.76926297 0.058686998 7.624625 0.8566209 0.039865 -11.44417 -1.9238778 7.3616176 -27.436178 1.9998628 -6.2763333 -0.0 0.0 -0.0 0.0 0.0 0.0 0.0 0.0 0.0 0.0 0.0 0.0 0.0 0.0 0.0 0.0 0.0 0.0 0.0 0.0 0.0 0.0 0.0 0.0 0.0 0.0 0.0 0.0 0.0 0.0 3.5604377 -24.352741 2.4419844 -63.12023 -20.094107 -65.9966 178.14458 -68.53294 181.97304 1.0167999 -4.380324 14.319712 -15.246071 10.161718 26.456182 3.938068 7.949316 0.7475929 -0.57959795 1.574938 2.5387208 5e-06 0.0 9.999999e-07 -9.999999e-07 0.00057 0.000103 -1.9999998e-06 -0.000685 -7.1999995e-05 7.999999e-06 1.0999999e-05 -4.9e-05 -9.999999e-07 1.9999998e-06 -9.999999e-07 -3.9999995e-06 -0.00196 0.016074 6.9999996e-06 0.001945 -0.016043002 -7.999999e-06 1.3999999e-05 -4.7999998e-05 1.9999998e-06 -9.999999e-07 -9.999999e-07 -1.9999998e-06 0.00046999997 0.000103 -1.9999998e-06 -0.00087999995 -0.00037 5e-06 1e-05 -5.2999996e-05 1.9999998e-06 -9.999999e-07 1.9999998e-06 -0.018608 4.0704226 0.51138693 -0.017974999 -4.096447 -0.5118389 -1.9999998e-06 0.026308998 0.000351 -9.999999e-07 1.9999998e-06 -0.0 0.0 0.0 0.0 0.0 0.0 0.0 0.0 0.0 0.0 0.0 0.0 0.0 0.0 0.0 0.0 0.0 0.0 0.0 0.0 0.0 0.0 0.0 0.0 0.0 0.0 0.0 0.0 0.0 0.0 0.0 0.0 0.0 0.0 0.7812663 11.099962 13.219825 -60.02635 40.40794 50.419765 -182.6016 73.196014 177.3017 2.9951956 -3.9715135 -38.906002 -6.947834 -5.049829 -29.74294 4.63755 -8.63395 -0.22633599 -1.273779 0.13718599 -2.094859 -1.9999998e-06 5.9999998e-06 -0.0 9.999999e-07 -0.000497 -0.000103 1.9999998e-06 0.00047999996 8.799999e-05 -2.9999999e-06 5e-06 1.6999998e-05 -0.0 1.9999998e-06 -0.0 -0.0 0.0 -0.000103 1.9999998e-06 -1e-05 8.799999e-05 -2.9999999e-06 5.9999998e-06 1.6999998e-05 -0.0 2.9999999e-06 -0.0 9.999999e-07 -0.000597 -0.000103 1.9999998e-06 0.000893 8.799999e-05 -2.9999999e-06 6.9999996e-06 1.6999998e-05 -0.0 -2.9999999e-06 -0.0 9.999999e-07 -0.000397 -0.000103 1.9999998e-06 0.001196 8.8999994e-05 -2.9999999e-06 -0.0011979999 1.6999998e-05 -0.0 -2.9999999e-06 -0.0 0.0 0.0 0.0 0.0 0.0 0.0 0.0 0.0 0.0 -54.250534 -14.570381 -6.4257774 75.56131 -8.141025 -4.5999727 -33.972954 -10.047558 4.161218 -6.9999996e-06 1.9999998e-06 -2.9999999e-06 -0.0 1.9999998e-06 -0.0 -56.09061 1.6013479 4.717049 76.55965 7.695817 -0.667941 -31.30375 5.4031906 -5.122132 -8.999999e-06 1.9999998e-06 -0.0 -0.0 0.0 -0.0
0.076072 82.56955 -0.15524 11.802232 3.0274658 -1.3539618 9.8914585 1.495211 1.1963329 7.619996 0.79306895 0.049362995 7.6111298 0.88065094 0.03029 -11.4702835 -1.969867 7.427071 -27.40091 1.8697659 -6.2891927 -0.0 0.0 -0.0 0.0 0.0 0.0 0.0 0.0 0.0 0.0 0.0 0.0 0.0 0.0 0.0 0.0 0.0 0.0 0.0 0.0 0.0 0.0 0.0 0.0 0.0 0.0 0.0 0.0 0.0 0.0 3.5595772 -24.36155 2.4358342 -63.198166 -20.230644 -66.093506 178.15053 -68.43825 181.96556 1.2371207 -4.4100337 14.244753 -15.246073 10.1617155 26.45619 3.9380636 7.9493237 0.7475919 -0.57959795 1.574938 2.538715 2.9999999e-06 2.9999999e-06 1.9999998e-06 -9.999999e-07 0.00056899997 9.999999e-05 -9.999999e-07 -0.00068299996 -6.9999995e-05 5.9999998e-06 1.0999999e-05 -4.9e-05 -1.9999998e-06 9.999999e-07 9.999999e-07 -5e-06 -0.0019590002 0.016072001 8.999999e-06 0.001947 -0.016045 -6.9999996e-06 1.3e-05 -5.0999995e-05 -0.0 -9.999999e-07 -0.0 -9.999999e-07 0.00046899996 9.999999e-05 -9.999999e-07 -0.000888 -0.00037099997 5.9999998e-06 1.19999995e-05 -5.2999996e-05 -0.0 -9.999999e-07 -9.999999e-07 -0.018608 4.070426 0.51138496 -0.017974999 -4.0964465 -0.5118389 9.999999e-07 0.026304998 0.00034899998 -0.0 1.9999998e-06 -2.9999999e-06 0.0 0.0 0.0 0.0 0.0 0.0 0.0 0.0 0.0 0.0 0.0 0.0 0.0 0.0 0.0 0.0 0.0 0.0 0.0 0.0 0.0 0.0 0.0 0.0 0.0 0.0 0.0 0.0 0.0 0.0 0.0 0.0 0.0 0.77225006 11.080791 13.295474 -60.048794 40.37293 50.384804 -182.61066 72.97572 177.29015 3.1027055 -3.9332757 -38.90966 -6.9478354 -5.0498323 -29.742939 4.6375494 -8.633952 -0.22633699 -1.273777 0.137187 -2.0948558 9.999999e-07 2.9999999e-06 -9.999999e-07 9.999999e-07 -0.000497 -0.00010199999 9.999999e-07 0.00048099997 8.799999e-05 -2.9999999e-06 7.999999e-06 1.6999998e-05 -0.0 5.9999998e-06 -0.0 -0.0 0.0 -0.000103 1.9999998e-06 -1.0999999e-05 8.799999e-05 -2.9999999e-06 1.9999998e-06 1.6999998e-05 -0.0 -9.999999e-07 -0.0 9.999999e-07 -0.000594 -0.00010199999 1.9999998e-06 0.000893 8.799999e-05 -2.9999999e-06 6.9999996e-06 1.6999998e-05 -0.0 0.0 -0.0 9.999999e-07 -0.000397 -0.000103 1.9999998e-06 0.0011909999 8.799999e-05 -3.9999995e-06 -0.001196 1.6999998e-05 -0.0 0.0 -0.0 0.0 0.0 0.0 0.0 0.0 0.0 0.0 0.0 0.0 -54.26968 -14.591689 -6.406124 75.54729 -8.153189 -4.6056514 -33.96856 -10.038153 4.175192 -5e-06 -9.999999e-07 -2.9999999e-06 -0.0 9.999999e-07 -0.0 -56.129566 1.578035 4.7622085 76.58138 7.677005 -0.72117496 -31.298384 5.442552 -5.0883293 -1e-05 -2.9999999e-06 -9.999999e-07 -0.0 -2.9999999e-06 -0.0
0.093268 82.57076 -0.139197 11.839379 3.005478 -1.3805249 9.874957 1.533114 1.183714 7.6065173 0.82261693 0.040033996 7.597274 0.9106121 0.020569999 -11.512428 -2.0209682 7.497571 -27.383018 1.722976 -6.3018284 -0.0 0.0 -0.0 0.0 0.0 0.0 0.0 0.0 0.0 0.0 0.0 0.0 0.0 0.0 0.0 0.0 0.0 0.0 0.0 0.0 0.0 0.0 0.0 0.0 0.0 0.0 0.0 0.0 0.0 0.0 3.5579631 -24.373743 2.4272034 -63.31044 -20.393734 -66.20967 178.15688 -68.32164 181.95726 1.508618 -4.500966 14.162112 -15.246073 10.161719 26.456186 3.9380665 7.949318 0.74759597 -0.57959396 1.574938 2.538719 2.9999999e-06 5.9999998e-06 1.9999998e-06 -0.0 0.00057299994 0.00010099999 -2.9999999e-06 -0.000679 -6.8999994e-05 6.9999996e-06 1.3999999e-05 -5.2e-05 -1.9999998e-06 -9.999999e-07 9.999999e-07 -3.9999995e-06 -0.001958 0.016074 6.9999996e-06 0.0019420002 -0.016045 -8.999999e-06 1e-05 -4.7999998e-05 -1.9999998e-06 1.9999998e-06 -1.9999998e-06 -0.0 0.00047399994 9.9e-05 -0.0 -0.0008859999 -0.00036899996 6.9999996e-06 1.19999995e-05 -5.2e-05 -0.0 9.999999e-07 -1.9999998e-06 -0.018607 4.070428 0.51138496 -0.017976003 -4.09644 -0.5118389 -1.9999998e-06 0.026307998 0.00034899998 -9.999999e-07 9.999999e-07 -0.0 0.0 0.0 0.0 0.0 0.0 0.0 0.0 0.0 0.0 0.0 0.0 0.0 0.0 0.0 0.0 0.0 0.0 0.0 0.0 0.0 0.0 0.0 0.0 0.0 0.0 0.0 0.0 0.0 0.0 0.0 0.0 0.0 0.0 0.7630761 11.055213 13.365695 -60.114964 40.318172 50.38527 -182.6206 72.7031 177.27725 3.2939699 -3.8695915 -38.871025 -6.947836 -5.0498276 -29.74294 4.637546 -8.63395 -0.22633599 -1.273777 0.13718599 -2.094859 9.999999e-07 0.0 -0.0 -0.0 -0.000497 -0.000103 1.9999998e-06 0.00047799997 8.799999e-05 -2.9999999e-06 2.9999999e-06 1.6999998e-05 -0.0 2.9999999e-06 -9.999999e-07 -0.0 1.9999998e-06 -0.00010199999 2.9999999e-06 -6.9999996e-06 8.799999e-05 -2.9999999e-06 5.9999998e-06 1.6999998e-05 -0.0 -2.9999999e-06 -0.0 9.999999e-07 -0.000597 -0.000103 1.9999998e-06 0.000893 8.699999e-05 -2.9999999e-06 5e-06 1.6999998e-05 -0.0 0.0 -0.0 9.999999e-07 -0.000397 -0.00010199999 2.9999999e-06 0.0011929999 8.799999e-05 -2.9999999e-06 -0.001196 1.6999998e-05 -0.0 0.0 -0.0 0.0 0.0 0.0 0.0 0.0 0.0 0.0 0.0 0.0 -54.288948 -14.608645 -6.401162 75.533455 -8.169664 -4.59815 -33.96481 -10.007183 4.1928816 -5.9999998e-06 0.0 -2.9999999e-06 -0.0 -9.999999e-07 -0.0 -56.16389 1.5868989 4.796624 76.59429 7.658028 -0.733885 -31.307066 5.476588 -5.0601325 -1.0999999e-05 -1.9999998e-06 -0.0 -0.0 0.0 -0.0
